<svg width="20" height="20" viewBox="0 0 20 20" fill="none" xmlns="http://www.w3.org/2000/svg">
<path d="M15.3483 3.83333H14.1045V3.33333C14.1045 2.83333 13.7728 2.5 13.2753 2.5C12.7778 2.5 12.4461 2.83333 12.4461 3.33333V3.83333H9.2952C8.79768 3.83333 8.46601 4.16667 8.46601 4.66667C8.46601 5.16667 8.79768 5.5 9.2952 5.5H12.529V6C12.529 6.5 12.8607 6.83333 13.3582 6.83333C13.8557 6.83333 14.1874 6.5 14.1874 6V5.5H15.4312C16.0116 5.5 16.592 6 16.592 6.66667V7.83333H3.32505V6.66667C3.32505 6 3.90548 5.5 4.56883 5.5H5.81261V6C5.81261 6.5 6.14428 6.83333 6.6418 6.83333C7.13931 6.83333 7.47098 6.5 7.47098 6V4.66667V3.33333C7.47098 2.83333 7.13931 2.5 6.6418 2.5C6.14428 2.5 5.81261 2.83333 5.81261 3.33333V3.83333H4.56883C2.91045 3.83333 1.66667 5.08333 1.66667 6.66667V14.6667C1.66667 16.25 2.91045 17.5 4.56883 17.5H15.4312C17.0066 17.5 18.3333 16.25 18.3333 14.6667V6.66667C18.2504 5.08333 17.0066 3.83333 15.3483 3.83333ZM15.3483 15.8333H4.56883C3.90548 15.8333 3.32505 15.3333 3.32505 14.6667V9.5H16.592V14.6667C16.592 15.3333 16.0116 15.8333 15.3483 15.8333Z" fill="black"/>
</svg>
