<svg width="20" height="20" viewBox="0 0 20 20" fill="none" xmlns="http://www.w3.org/2000/svg">
<path d="M11.6667 9.16667H12.5C13.4205 9.16667 14.1667 9.91286 14.1667 10.8333V13.3333C14.1667 14.0237 14.7263 14.5833 15.4167 14.5833C16.107 14.5833 16.6667 14.0237 16.6667 13.3333V7.5L14.1667 5" stroke="#0F0F0F" stroke-width="1.75" stroke-linecap="round" stroke-linejoin="round"/>
<path d="M3.33334 16.6667V5C3.33334 4.07953 4.07954 3.33333 5.00001 3.33333H10C10.9205 3.33333 11.6667 4.07953 11.6667 5V16.6667" stroke="#0F0F0F" stroke-width="1.75" stroke-linecap="round" stroke-linejoin="round"/>
<path d="M2.5 16.6667H12.5" stroke="#0F0F0F" stroke-width="1.75" stroke-linecap="round" stroke-linejoin="round"/>
<path d="M15 5.83333V6.66667C15 7.1269 15.3731 7.5 15.8333 7.5H16.6667" stroke="#0F0F0F" stroke-width="1.75" stroke-linecap="round" stroke-linejoin="round"/>
<path d="M3.33334 9.16667H11.6667" stroke="#0F0F0F" stroke-width="1.75" stroke-linecap="round" stroke-linejoin="round"/>
</svg>
