<svg width="179" height="17" viewBox="0 0 179 17" fill="none" xmlns="http://www.w3.org/2000/svg">
<path d="M0 16.5645H13.4541V13.9604H3.37558V0.265224H0V16.5645Z" fill="white"/>
<path d="M27.41 16.5645C29.9417 16.5645 31.9429 15.9617 33.4137 14.732C34.8845 13.5264 35.632 11.694 35.6561 9.25874V0H32.2805V9.37929C32.2805 10.8983 31.8465 12.0315 31.0026 12.779C30.1587 13.5505 28.9773 13.9363 27.4582 13.9363C25.9392 13.9363 24.7578 13.5264 23.8898 12.7308C23.0459 11.9592 22.6119 10.8019 22.6119 9.28285V0H19.2363V9.37929C19.2604 11.7663 19.9837 13.5505 21.4545 14.7561C22.9012 15.9617 24.8783 16.5645 27.41 16.5645Z" fill="white"/>
<path d="M41.4394 16.5645H45.4178L50.3847 10.5125L55.3034 16.5645H59.4023L52.5547 8.22195L59.113 0.265224H55.1346L50.457 5.9796L45.8035 0.265224H41.7046L48.3111 8.27017L41.4394 16.5645Z" fill="white"/>
<path d="M65.1966 14.0087V16.5645H79.6633V14.0087H65.1966ZM65.1966 7.06461V9.62041H79.6633V7.06461H65.1966ZM65.1966 0.265224V2.82102H79.6633V0.265224H65.1966Z" fill="white"/>
<path d="M85.4453 16.5645H92.6064C94.6317 16.5403 96.3919 16.1787 97.935 15.4795C99.454 14.7561 100.635 13.7917 101.503 12.562C102.347 11.3323 102.781 9.95797 102.805 8.41484V8.36662C102.781 6.8235 102.347 5.42504 101.503 4.21948C100.635 3.01391 99.454 2.04946 97.935 1.32612C96.3919 0.626894 94.6317 0.265224 92.6064 0.265224H85.4453V16.5645ZM88.8209 13.9604V2.86924H92.6064C94.6317 2.89336 96.2472 3.4238 97.4528 4.43648C98.6342 5.44915 99.237 6.77527 99.2611 8.41484V8.46306C99.237 10.0785 98.6342 11.4046 97.4528 12.3932C96.2472 13.4059 94.6317 13.9363 92.6064 13.9604H88.8209Z" fill="white"/>
<path d="M116.885 8.34251H108.59V16.5645H111.966V10.8742H116.185L120.911 16.5645H124.865L119.706 10.392C121.056 10.0785 122.165 9.49985 122.985 8.68007C123.829 7.86028 124.239 6.91994 124.263 5.56971V5.28037C124.263 4.58115 124.142 4.02659 123.853 3.44792C123.588 2.84513 123.202 2.3388 122.671 1.88068C122.069 1.37434 121.297 0.964452 120.357 0.675116C119.416 0.409892 118.355 0.265224 117.15 0.265224H108.59V2.86924H116.86C118.114 2.86924 119.103 3.08625 119.802 3.56847C120.477 4.02659 120.839 4.58115 120.839 5.44915V5.73849C120.839 6.58238 120.477 7.11283 119.778 7.59506C119.079 8.07728 118.114 8.34251 116.885 8.34251Z" fill="white"/>
<path d="M130.652 16.5645H134.028V0.265224H130.652V16.5645Z" fill="white"/>
<path d="M147.792 16.5645H150.757L158.738 0.144667H155.073L149.311 12.4414L143.524 0.144667H139.811L147.792 16.5645Z" fill="white"/>
<path d="M164.533 14.0087V16.5645H179V14.0087H164.533ZM164.533 7.06461V9.62041H179V7.06461H164.533ZM164.533 0.265224V2.82102H179V0.265224H164.533Z" fill="white"/>
</svg>
