<svg width="94" height="38" viewBox="0 0 94 38" fill="none" xmlns="http://www.w3.org/2000/svg">
<g clip-path="url(#clip0_1_2966)">
<path d="M88.5488 15.9246L85.403 14.7928C81.7542 13.4075 78.1054 11.8982 74.5813 10.137L65.0202 5.48117C58.7287 2.46182 51.8077 0.826172 44.8876 0.826172H8.27459C6.7645 0.826172 5.3808 1.45565 4.24824 2.46182C0.976107 5.73313 0.724977 13.1572 0.850542 16.051V22.8447C0.850542 28.2556 5.12802 32.533 10.5389 32.533H11.5451C12.9296 35.4268 15.8234 37.5656 19.2202 37.5656C22.6179 37.5656 25.6373 35.5524 26.8954 32.533H67.9148C69.2985 35.4268 72.1922 37.5656 75.5891 37.5656C78.9868 37.5656 82.007 35.5524 83.2651 32.533H83.5162C88.8016 32.533 93.2046 28.13 93.2046 22.8447C93.2046 19.8253 91.317 17.0571 88.5488 15.9246ZM10.4125 31.6533C8.27293 31.6533 6.26059 30.7718 4.7505 29.5137H10.7908C10.7908 30.2687 10.9164 31.0238 11.1684 31.6533H10.4133H10.4125ZM26.6443 29.3881C26.6443 30.1423 26.5187 30.8982 26.2668 31.5277C26.1404 31.9044 26.0148 32.1555 25.8892 32.5339C25.2499 33.7488 24.2908 34.766 23.1154 35.4754C21.94 36.1849 20.5931 36.5597 19.2202 36.5594C16.3265 36.5594 13.8094 34.9237 12.6776 32.5339C12.5521 32.2819 12.4265 31.9044 12.3001 31.5269C12.049 30.8982 11.9234 30.1432 11.9234 29.3881V29.1362C11.9234 28.8842 11.9234 28.6323 12.049 28.5075C12.4265 24.7323 15.5722 21.713 19.473 21.713C23.3738 21.713 26.5195 24.7323 26.8962 28.5075C26.8962 28.7586 27.0218 29.0114 27.0218 29.1362C26.7698 29.2617 26.7698 29.2617 26.6443 29.3881ZM27.3985 31.6524C27.6505 30.8982 27.776 30.2687 27.776 29.5137H67.1581C67.1581 30.2687 67.2845 31.0238 67.5356 31.6533L27.3985 31.6524ZM83.1379 29.3881C83.1379 30.1423 83.0123 30.8982 82.7604 31.5277C82.6348 31.9044 82.5092 32.1555 82.3837 32.5339C81.1255 34.9246 78.6085 36.5594 75.8411 36.5594C74.4682 36.5597 73.1213 36.1849 71.9459 35.4754C70.7706 34.766 69.8114 33.7488 69.1721 32.5339C69.0457 32.2819 68.9201 31.9044 68.7945 31.5269C68.5426 30.8982 68.417 30.1432 68.417 29.3881V29.1362C68.417 28.8842 68.417 28.6323 68.5426 28.5075C68.9201 24.7323 72.0658 21.713 75.9666 21.713C79.8674 21.713 83.0123 24.7323 83.3899 28.5075C83.3899 28.7586 83.5154 29.0114 83.5154 29.1362C83.1379 29.2617 83.1379 29.2617 83.1379 29.3881ZM83.7674 31.6524C84.0193 30.8982 84.1449 30.2687 84.1449 29.5137H89.4294C87.7937 30.7718 85.9061 31.526 83.7674 31.6524ZM90.3108 28.5075H84.1449C83.7674 24.1036 80.1185 20.7068 75.7147 20.7068C71.3116 20.7068 67.662 24.1036 67.2845 28.5075H27.776C27.3985 24.1036 23.7497 20.7068 19.3458 20.7068C14.9428 20.7068 11.2931 24.1036 10.9156 28.5075H3.99546C2.73732 26.9974 1.98311 24.9843 1.98311 22.8455V21.5874H4.49937C4.7505 21.5874 5.00328 21.3354 5.00328 21.0835C5.00328 20.8323 4.7505 20.5796 4.49937 20.5796H1.98228V19.0703H6.25976C6.51172 19.0703 6.76367 18.8183 6.76367 18.5664C6.76367 18.3153 6.51172 18.0625 6.25976 18.0625H1.73115V15.9246C1.73115 13.0308 1.85672 5.98426 4.87606 2.96491C5.7575 1.95791 6.89006 1.58039 8.14737 1.58039H44.7628C51.5566 1.58039 58.352 3.21604 64.5171 6.10982L74.0799 10.7656C77.6023 12.5269 81.3775 14.037 85.0263 15.4206L88.1721 16.5532C89.5558 17.0571 90.5619 18.0633 91.3178 19.3214H86.9139C86.662 19.3214 86.41 19.5734 86.41 19.8253C86.41 20.0765 86.662 20.3293 86.9139 20.3293H91.8201C92.072 21.0835 92.1984 21.8385 92.1984 22.5927C92.324 24.9843 91.5689 26.8727 90.3108 28.5075Z" fill="#0F0F0F" stroke="#0F0F0F" stroke-width="0.3"/>
<path d="M75.5886 24.2308C73.1979 24.2308 71.1856 25.9928 70.8072 28.3827C70.8072 28.6347 70.6817 28.8866 70.6817 29.0122V29.2641C70.6817 30.0184 70.9336 30.7734 71.3103 31.4029C71.5623 31.7804 71.8142 32.0315 72.0654 32.4091C72.946 33.2897 74.2049 33.7936 75.4622 33.7936C76.8467 33.7936 77.9793 33.2897 78.8607 32.4091C79.1111 32.1571 79.363 31.7804 79.615 31.4029C79.9925 30.7734 80.2436 30.0192 80.2436 29.2633V29.0122C80.2436 28.7602 80.2436 28.5083 80.1189 28.3827C80.1189 26.1184 78.1049 24.2308 75.5886 24.2308ZM79.4894 29.3897C79.4894 30.191 79.173 30.9593 78.6088 31.5293C78.2304 31.906 77.8529 32.2835 77.3507 32.5354C76.8468 32.7874 76.2181 33.0394 75.5886 33.0394C74.96 33.0394 74.3305 32.913 73.8274 32.5354C73.3235 32.2835 72.946 31.906 72.5693 31.5293C72.0654 30.8998 71.6878 30.1456 71.6878 29.3897V29.1386C71.6878 28.8866 71.6878 28.6347 71.8142 28.5091C72.1917 26.7471 73.701 25.3634 75.5894 25.3634C77.4762 25.3634 79.1111 26.7479 79.363 28.5091C79.363 28.7611 79.4894 29.013 79.4894 29.1378V29.3897ZM50.9291 17.1843H48.4128C48.1617 17.1843 47.9089 17.4362 47.9089 17.6882C47.9089 17.9393 48.1617 18.1921 48.4128 18.1921H50.9299C51.1811 18.1921 51.433 17.9393 51.433 17.6882C51.433 17.4362 51.1811 17.1843 50.9291 17.1843ZM28.0283 17.1843H25.5112C25.2601 17.1843 25.0073 17.4362 25.0073 17.6882C25.0073 17.9393 25.2601 18.1921 25.5112 18.1921H28.0283C28.2794 18.1921 28.5322 17.9393 28.5322 17.6882C28.5322 17.4362 28.2794 17.1843 28.0283 17.1843ZM19.2197 24.2308C16.829 24.2308 14.8159 25.9928 14.4375 28.3827C14.4375 28.6347 14.312 28.8866 14.312 29.0122V29.2641C14.312 30.0184 14.5639 30.7734 14.9414 31.4029C15.1934 31.7804 15.4453 32.0315 15.6957 32.4091C16.5771 33.2897 17.8352 33.7936 19.0934 33.7936C20.4779 33.7936 21.6096 33.2897 22.4902 32.4091C22.7422 32.1571 22.9941 31.7804 23.2453 31.4029C23.6228 30.7734 23.8739 30.0192 23.8739 29.2633V29.0122C23.8739 28.7602 23.8739 28.5083 23.7484 28.3827C23.7484 26.1184 21.736 24.2308 19.2189 24.2308H19.2197ZM23.1205 29.3897C23.1205 30.2711 22.743 31.0254 22.2391 31.5293C21.8624 31.906 21.4849 32.2835 20.981 32.5354C20.477 32.7874 19.8492 33.0394 19.2197 33.0394C18.5903 33.0394 17.9616 32.913 17.4577 32.5354C16.9538 32.2835 16.5771 31.906 16.1996 31.5293C15.6957 30.8998 15.319 30.1456 15.319 29.3897V29.1386C15.319 28.8866 15.319 28.6347 15.4445 28.5091C15.822 26.7471 17.3321 25.3634 19.2197 25.3634C21.1065 25.3634 22.7422 26.7479 22.9941 28.5091C22.9941 28.7611 23.1197 29.013 23.1197 29.1378V29.3897H23.1205ZM76.3428 14.288L65.8994 8.75158C63.2576 7.36871 61.1189 6.36088 59.1049 5.73306C54.0724 4.09741 48.9134 3.2168 43.629 3.2168H10.16C6.88874 3.2168 4.24609 5.98419 4.24609 9.38188C4.24609 13.1563 7.13987 16.1765 10.7887 16.1765H75.8398C76.3428 16.1765 76.7212 15.9245 76.8468 15.4214C76.9715 15.0439 76.7204 14.5408 76.3428 14.2888V14.288ZM10.6631 15.2942C7.64378 15.1686 5.25226 12.6524 5.25226 9.50662C5.25226 6.61284 7.51739 4.34771 10.2856 4.34771H10.6631V15.2942ZM20.7298 15.2942H11.5437V4.22214H20.7298V15.2942ZM23.4972 15.2942H21.736V4.22214H23.498L23.4972 15.2942ZM45.8941 15.2942H24.3778V4.22214H43.629C44.384 4.22214 45.139 4.22214 45.8933 4.34771L45.8941 15.2942ZM46.9003 15.2942V4.34854C50.9266 4.59967 54.953 5.35471 58.8538 6.73923C60.8669 7.36788 63.0057 8.37488 65.5219 9.75858L75.9653 15.295L46.9003 15.2942Z" fill="#0F0F0F" stroke="#0F0F0F" stroke-width="0.3"/>
</g>
<defs>
<clipPath id="clip0_1_2966">
<rect width="93.3478" height="38" fill="white"/>
</clipPath>
</defs>
</svg>
