<svg width="20" height="20" viewBox="0 0 20 20" fill="none" xmlns="http://www.w3.org/2000/svg">
<g clip-path="url(#clip0_1_4957)">
<path d="M10 1.66669V3.75002M10 1.66669C5.39763 1.66669 1.66667 5.39765 1.66667 10M10 1.66669C14.6024 1.66669 18.3333 5.39765 18.3333 10M10 16.25V18.3334M10 18.3334C14.6024 18.3334 18.3333 14.6024 18.3333 10M10 18.3334C5.39763 18.3334 1.66667 14.6024 1.66667 10M3.75001 10H1.66667M18.3333 10H16.25M15.8987 15.8987L14.4206 14.4206M4.10136 15.8987L5.58096 14.4191M4.10136 4.16669L5.54841 5.61373M15.8987 4.16669L11.2499 8.75002M11.6667 10C11.6667 10.9205 10.9205 11.6667 10 11.6667C9.07953 11.6667 8.33334 10.9205 8.33334 10C8.33334 9.07955 9.07953 8.33335 10 8.33335C10.9205 8.33335 11.6667 9.07955 11.6667 10Z" stroke="black" stroke-width="1.5" stroke-linecap="round" stroke-linejoin="round"/>
</g>
<defs>
<clipPath id="clip0_1_4957">
<rect width="20" height="20" fill="white"/>
</clipPath>
</defs>
</svg>
