<svg width="121" height="21" viewBox="0 0 121 21" fill="none" xmlns="http://www.w3.org/2000/svg">
<path d="M14.8886 16.3398H13.1038L12.9004 14.0829C12.5088 14.7901 11.8687 15.3994 10.9801 15.911C10.0914 16.4226 9.02201 16.6783 7.77189 16.6783C6.40126 16.6783 5.13607 16.3699 3.97631 15.753C2.81655 15.1211 1.86013 14.1582 1.10704 12.8642C0.369013 11.5703 0 10.0582 0 8.32788C0 6.59761 0.391606 5.0855 1.17482 3.79156C1.95803 2.49761 2.93705 1.5422 4.11187 0.92532C5.30175 0.30844 6.57448 0 7.93004 0C9.64708 0 11.1382 0.443853 12.4034 1.33156C13.6836 2.20422 14.5572 3.37027 15.0241 4.82972L13.0134 5.68733C12.6519 4.5288 12.0193 3.63358 11.1156 3.00165C10.227 2.35468 9.16511 2.03119 7.93004 2.03119C6.37867 2.03119 5.0457 2.58037 3.93113 3.67871C2.81656 4.77706 2.25927 6.32678 2.25927 8.32788C2.25927 10.344 2.80149 11.9088 3.88594 13.0222C4.98545 14.1205 6.30336 14.6697 7.83966 14.6697C8.68312 14.6697 9.42869 14.5343 10.0763 14.2635C10.7391 13.9927 11.2512 13.6391 11.6126 13.2027C11.9892 12.7514 12.2678 12.3 12.4486 11.8486C12.6444 11.3972 12.7573 10.9459 12.7875 10.4945H7.22966V8.50844H14.8886V16.3398ZM20.3029 13.767C20.9656 14.444 21.7714 14.7826 22.7203 14.7826C23.6692 14.7826 24.4675 14.444 25.1151 13.767C25.7778 13.0749 26.1092 12.1194 26.1092 10.9007C26.1092 9.69706 25.7778 8.75669 25.1151 8.07963C24.4675 7.38752 23.6692 7.04146 22.7203 7.04146C21.7714 7.04146 20.9656 7.38752 20.3029 8.07963C19.6552 8.75669 19.3314 9.69706 19.3314 10.9007C19.3314 12.1194 19.6552 13.0749 20.3029 13.767ZM18.7214 6.79321C19.7757 5.69486 21.1087 5.14568 22.7203 5.14568C24.3319 5.14568 25.6573 5.69486 26.6966 6.79321C27.7509 7.87651 28.2781 9.24568 28.2781 10.9007C28.2781 12.5708 27.7585 13.955 26.7192 15.0534C25.6799 16.1367 24.347 16.6783 22.7203 16.6783C21.0936 16.6783 19.7607 16.1367 18.7214 15.0534C17.6821 13.955 17.1625 12.5708 17.1625 10.9007C17.1625 9.24568 17.6821 7.87651 18.7214 6.79321ZM33.2319 13.767C33.8946 14.444 34.7004 14.7826 35.6493 14.7826C36.5982 14.7826 37.3965 14.444 38.0442 13.767C38.7069 13.0749 39.0382 12.1194 39.0382 10.9007C39.0382 9.69706 38.7069 8.75669 38.0442 8.07963C37.3965 7.38752 36.5982 7.04146 35.6493 7.04146C34.7004 7.04146 33.8946 7.38752 33.2319 8.07963C32.5843 8.75669 32.2604 9.69706 32.2604 10.9007C32.2604 12.1194 32.5843 13.0749 33.2319 13.767ZM31.6504 6.79321C32.7048 5.69486 34.0377 5.14568 35.6493 5.14568C37.2609 5.14568 38.5864 5.69486 39.6256 6.79321C40.68 7.87651 41.2071 9.24568 41.2071 10.9007C41.2071 12.5708 40.6875 13.955 39.6482 15.0534C38.609 16.1367 37.276 16.6783 35.6493 16.6783C34.0227 16.6783 32.6897 16.1367 31.6504 15.0534C30.6112 13.955 30.0915 12.5708 30.0915 10.9007C30.0915 9.24568 30.6112 7.87651 31.6504 6.79321ZM43.1335 16.9266L45.1895 16.4526C45.2648 17.22 45.5736 17.8519 46.1158 18.3484C46.658 18.86 47.3358 19.1158 48.1491 19.1158C50.3632 19.1158 51.4702 17.9422 51.4702 15.595V14.0378C51.1991 14.5644 50.7699 14.9932 50.1825 15.3242C49.6101 15.6552 48.9323 15.8207 48.1491 15.8207C46.7032 15.8207 45.5058 15.3317 44.5569 14.3538C43.6231 13.3607 43.1561 12.0969 43.1561 10.5622C43.1561 9.07265 43.6231 7.82385 44.5569 6.81578C45.4907 5.79266 46.6881 5.2811 48.1491 5.2811C49.8059 5.2811 50.9205 5.85284 51.4928 6.99632V5.48422H53.5942V15.5273C53.5942 16.2495 53.4963 16.9191 53.3005 17.5359C53.1197 18.1679 52.826 18.7471 52.4191 19.2737C52.0125 19.8004 51.4401 20.2141 50.7021 20.515C49.9791 20.8159 49.1281 20.9664 48.1491 20.9664C46.8086 20.9664 45.6715 20.5827 44.7376 19.8154C43.8038 19.0631 43.2691 18.1002 43.1335 16.9266ZM48.4654 14.0378C49.3842 14.0378 50.1297 13.7218 50.7021 13.0899C51.2744 12.4429 51.5606 11.6004 51.5606 10.5622C51.5606 9.52403 51.2744 8.68898 50.7021 8.05706C50.1297 7.41009 49.3842 7.0866 48.4654 7.0866C47.5316 7.0866 46.771 7.40256 46.1836 8.03449C45.6112 8.66641 45.325 9.50898 45.325 10.5622C45.325 11.6305 45.6037 12.4805 46.161 13.1125C46.7333 13.7293 47.5015 14.0378 48.4654 14.0378ZM59.1089 16.3398H56.9852V0H59.1089V16.3398ZM64.0998 9.79485H70.0417C70.0115 8.98238 69.7404 8.32036 69.2283 7.8088C68.7162 7.2822 67.9932 7.01889 67.0594 7.01889C66.216 7.01889 65.5231 7.29724 64.9809 7.85394C64.4387 8.39559 64.145 9.04256 64.0998 9.79485ZM70.358 12.616L72.188 13.2479C71.8717 14.256 71.2843 15.0835 70.4257 15.7304C69.5672 16.3624 68.528 16.6783 67.3079 16.6783C65.7867 16.6783 64.4914 16.1593 63.422 15.1211C62.3677 14.0679 61.8405 12.6536 61.8405 10.8782C61.8405 9.22311 62.3526 7.85394 63.3768 6.77064C64.401 5.68734 65.621 5.14568 67.0368 5.14568C68.6786 5.14568 69.9588 5.66477 70.8776 6.70293C71.7964 7.72605 72.2557 9.10274 72.2557 10.833C72.2557 11.1038 72.2407 11.3295 72.2106 11.5101H64.032C64.0471 12.473 64.3634 13.2629 64.9809 13.8798C65.6135 14.4967 66.3892 14.8051 67.3079 14.8051C68.8593 14.8051 69.876 14.0754 70.358 12.616ZM83.0551 7.8088H86.2632C87.2121 7.8088 87.9652 7.56807 88.5225 7.0866C89.0798 6.59009 89.3584 5.92807 89.3584 5.10055C89.3584 4.25798 89.0798 3.58844 88.5225 3.09192C87.9652 2.58037 87.2121 2.32459 86.2632 2.32459H83.0551V7.8088ZM86.6699 9.79485H83.0551V16.3398H80.841V0.338532H86.6699C88.1309 0.338532 89.3208 0.789908 90.2395 1.69266C91.1583 2.59541 91.6177 3.72385 91.6177 5.07798C91.6177 6.44715 91.1583 7.57559 90.2395 8.4633C89.3208 9.351 88.1309 9.79485 86.6699 9.79485ZM95.9985 16.3398H93.8748V0H95.9985V16.3398ZM98.9334 13.4284C98.9334 12.4956 99.2346 11.7508 99.8371 11.1941C100.44 10.6224 101.238 10.2688 102.232 10.1334L105.169 9.70458C105.726 9.62935 106.005 9.35853 106.005 8.8921C106.005 8.32036 105.809 7.85394 105.418 7.49284C105.026 7.13174 104.438 6.95119 103.655 6.95119C102.932 6.95119 102.36 7.15431 101.938 7.56054C101.517 7.95174 101.268 8.47834 101.193 9.14036L99.1593 8.66642C99.2648 7.62825 99.7392 6.78568 100.583 6.13871C101.426 5.47669 102.435 5.14568 103.61 5.14568C105.146 5.14568 106.284 5.52183 107.022 6.27412C107.76 7.01137 108.129 7.95926 108.129 9.11779V14.5569C108.129 15.2038 108.174 15.7982 108.264 16.3398H106.186C106.11 15.8884 106.073 15.3994 106.073 14.8728C105.771 15.3543 105.327 15.7756 104.74 16.1367C104.167 16.4978 103.444 16.6783 102.571 16.6783C101.501 16.6783 100.628 16.3624 99.9501 15.7304C99.2723 15.0835 98.9334 14.3161 98.9334 13.4284ZM102.865 14.8954C103.813 14.8954 104.574 14.6396 105.146 14.1281C105.719 13.6165 106.005 12.804 106.005 11.6906V11.1941L102.684 11.6906C102.202 11.7659 101.818 11.9389 101.532 12.2097C101.245 12.4805 101.102 12.8492 101.102 13.3156C101.102 13.7369 101.26 14.1055 101.577 14.4215C101.908 14.7374 102.337 14.8954 102.865 14.8954ZM113.928 20.8761H111.601L114.313 15.1437L109.636 5.48422H112.076L115.465 12.9771L118.718 5.48422H121L113.928 20.8761Z" fill="#0F0F0F"/>
</svg>
