<svg width="55" height="36" viewBox="0 0 55 36" fill="none" xmlns="http://www.w3.org/2000/svg">
<path d="M39.6699 1.76931C36.2635 0.649949 32.041 0 27.4638 0C22.8865 0 18.664 0.649949 15.2576 1.76931C6.2095 4.73019 0 10.8686 0 17.9458C0 27.9117 12.2771 36 27.4283 36C42.5795 36 54.8565 27.9117 54.8565 17.9458C54.9275 10.8686 48.718 4.73019 39.6699 1.76931ZM27.4638 28.2728C25.1928 28.2728 23.3477 23.7593 23.2413 18.0542C24.5896 18.1625 26.009 18.2347 27.4638 18.2347C28.9186 18.2347 30.3024 18.1625 31.6862 18.0542C31.5798 23.7232 29.7347 28.2728 27.4638 28.2728ZM23.5252 13.5767C24.1284 9.56871 25.6541 6.75226 27.4638 6.75226C29.2379 6.75226 30.7637 9.56871 31.4024 13.5767C30.1605 13.6851 28.8121 13.7573 27.4638 13.7573C26.1154 13.7573 24.8025 13.7212 23.5252 13.5767ZM33.8152 13.2879C32.8926 7.00501 30.4088 2.52758 27.4638 2.52758C24.5187 2.52758 22.0349 7.00501 21.1123 13.2879C15.5415 12.3852 11.6384 10.3992 11.6384 8.05215C11.6384 4.87462 18.6995 2.31093 27.4283 2.31093C36.1571 2.31093 43.2182 4.87462 43.2182 8.05215C43.2891 10.3992 39.386 12.4213 33.8152 13.2879ZM4.04505 17.2959C4.04505 14.2267 5.21598 11.3741 7.20303 8.91875C7.16754 9.0993 7.16754 9.27984 7.16754 9.42427C7.16754 13.2879 12.8448 16.5376 20.7575 17.7292C20.7575 18.0181 20.7575 18.3069 20.7575 18.5958C20.7575 25.7452 22.709 31.8114 25.4057 33.9057C13.4125 33.1836 4.04505 26.0341 4.04505 17.2959ZM29.5572 33.9057C32.2539 31.8114 34.2055 25.7452 34.2055 18.5958C34.2055 18.3069 34.2055 18.0181 34.2055 17.7292C42.1182 16.5376 47.7954 13.2518 47.7954 9.42427C47.7954 9.24373 47.7954 9.06319 47.76 8.91875C49.7825 11.3741 50.9179 14.2628 50.9179 17.2959C50.9179 26.0341 41.515 33.1836 29.5572 33.9057Z" fill="#0F0F0F"/>
</svg>
