<svg width="55" height="7" viewBox="0 0 55 7" fill="none" xmlns="http://www.w3.org/2000/svg">
<path opacity="0.6" d="M5.91242 6.25156V3.06533H2.85248V4.1015H4.78872C4.71956 4.53324 4.27872 5.2931 3.14638 5.2931C2.11775 5.2931 1.21014 4.57641 1.21014 3.19486C1.21014 1.74422 2.21284 1.11388 3.13773 1.11388C4.13178 1.11388 4.64177 1.74422 4.79736 2.28821L5.93835 1.88237C5.63582 0.941187 4.7455 0 3.13773 0C1.4781 0 0 1.2175 0 3.19486C0 5.17221 1.40896 6.38108 3.05994 6.38108C3.98483 6.38108 4.58991 5.96661 4.86651 5.55214L4.94431 6.25156H5.91242ZM12.5747 6.25156V5.12904H9.92967V3.71294H12.324V2.65087H9.92967V1.25204H12.5747V0.129521H8.73681V6.25156H12.5747ZM20.002 1.26067V0.129521H14.928V1.26067H16.8642V6.25156H18.0657V1.26067H20.002ZM27.4289 6.25156V0.129521H26.2188V6.25156H27.4289ZM34.96 1.26067V0.129521H29.886V1.26067H31.8223V6.25156H33.0238V1.26067H34.96ZM42.0497 3.18622C42.0497 1.80466 43.0178 1.14842 43.96 1.14842C44.9109 1.14842 45.879 1.80466 45.879 3.18622C45.879 4.56778 44.9109 5.22402 43.96 5.22402C43.0178 5.22402 42.0497 4.56778 42.0497 3.18622ZM40.8137 3.19486C40.8137 5.16358 42.3004 6.38108 43.96 6.38108C45.6283 6.38108 47.115 5.16358 47.115 3.19486C47.115 1.2175 45.6283 0 43.96 0C42.3004 0 40.8137 1.2175 40.8137 3.19486ZM55 6.25156V0.129521H53.8071V4.17922L51.2568 0.129521H49.77V6.25156H50.9629V1.90828L53.7466 6.25156H55Z" fill="#0F0F0F"/>
</svg>
