<svg width="42" height="42" viewBox="0 0 42 42" fill="none" xmlns="http://www.w3.org/2000/svg">
<g clip-path="url(#clip0_1_2960)">
<path d="M21 39.525C10.875 39.525 2.55 31.125 2.55 21C2.55 18.9 2.925 16.875 3.6 14.925L14.4 35.925C14.55 36.225 14.7 36.45 15.075 36.45C15.45 36.45 15.6 36.225 15.75 35.925L20.775 24.75C20.85 24.6 20.925 24.525 21 24.525C21.15 24.525 21.15 24.675 21.225 24.75L26.325 35.925C26.475 36.225 26.625 36.45 27 36.45C27.375 36.45 27.525 36.225 27.675 35.925L38.475 14.925C39.15 16.8 39.525 18.825 39.525 21C39.45 31.125 31.125 39.525 21 39.525ZM21 16.2C20.85 16.2 20.85 16.05 20.775 15.975L15 3.525C16.875 2.85 18.9 2.475 21 2.475C23.1 2.475 25.125 2.85 27 3.525L21.225 15.975C21.15 16.05 21.15 16.2 21 16.2ZM14.925 29.7C14.775 29.7 14.775 29.55 14.7 29.475L5.25 11.325C6.9 8.625 9.3 6.375 12.075 4.8L18.75 19.2C18.9 19.5 19.05 19.575 19.275 19.575H22.725C22.95 19.575 23.1 19.5 23.25 19.2L29.85 4.8C32.625 6.375 35.025 8.625 36.675 11.325L27.3 29.475C27.225 29.625 27.15 29.7 27.075 29.7C26.925 29.7 26.925 29.55 26.85 29.475L23.25 21.525C23.1 21.225 22.95 21.15 22.725 21.15H19.275C19.05 21.15 18.9 21.225 18.75 21.525L15.15 29.475C15.075 29.55 15.075 29.7 14.925 29.7ZM21 42C32.625 42 42 32.625 42 21C42 9.375 32.625 0 21 0C9.375 0 0 9.375 0 21C0 32.625 9.375 42 21 42Z" fill="#0F0F0F"/>
</g>
<defs>
<clipPath id="clip0_1_2960">
<rect width="42" height="42" fill="white"/>
</clipPath>
</defs>
</svg>
